<svg width="180" height="60" viewBox="0 0 180 60" fill="none" xmlns="http://www.w3.org/2000/svg">
<path d="M16.7258 19.0344L0 0V40.9656L16.7258 60V19.0344Z" fill="#F2F2F2"/>
<path d="M34.8593 19.0344L18.1335 0V40.9656L34.8593 60V19.0344Z" fill="#F2F2F2"/>
<path d="M52.9928 19.0344L36.2671 0V40.9656L52.9928 60V19.0344Z" fill="#F2F2F2"/>
<path d="M74.4561 37.0877C66.9125 37.0877 62.1887 32.0957 62.1887 23.8172C62.1887 15.5564 66.9484 10.5645 74.4561 10.5645C80.6886 10.5645 85.4303 14.4728 85.8434 20.2109H80.5629C80.0599 17.0665 77.6172 15.0057 74.4561 15.0057C70.361 15.0057 67.7207 18.3988 67.7207 23.7994C67.7207 29.2711 70.3251 32.6464 74.4741 32.6464C77.6891 32.6464 80.0061 30.7811 80.5808 27.7433H85.8614C85.2507 33.4636 80.8143 37.0877 74.4561 37.0877Z" fill="#F2F2F2"/>
<path d="M96.3322 37.0522C90.5128 37.0522 86.7949 33.357 86.7949 27.1037C86.7949 20.9393 90.5667 17.1908 96.3322 17.1908C102.098 17.1908 105.87 20.9215 105.87 27.1037C105.87 33.3748 102.152 37.0522 96.3322 37.0522ZM96.3322 33.0906C98.9006 33.0906 100.535 30.941 100.535 27.1215C100.535 23.3375 98.8827 21.1524 96.3322 21.1524C93.7818 21.1524 92.1114 23.3375 92.1114 27.1215C92.1114 30.941 93.7458 33.0906 96.3322 33.0906Z" fill="#F2F2F2"/>
<path d="M114.479 33.1971C116.76 33.1971 118.646 31.7226 118.646 29.6619V28.2762L114.587 28.5249C112.629 28.6671 111.515 29.5375 111.515 30.8877C111.515 32.3089 112.701 33.1971 114.479 33.1971ZM112.755 36.9456C109.091 36.9456 106.307 34.6006 106.307 31.1719C106.307 27.7077 109.001 25.7003 113.796 25.416L118.646 25.1318V23.8705C118.646 22.094 117.389 21.0636 115.413 21.0636C113.455 21.0636 112.216 22.0229 111.964 23.4264H107.169C107.366 19.7312 110.546 17.1908 115.646 17.1908C120.586 17.1908 123.801 19.7135 123.801 23.5507V36.6436H118.736V33.7301H118.628C117.55 35.7553 115.162 36.9456 112.755 36.9456Z" fill="#F2F2F2"/>
<path d="M125.799 36.6436V11.0086H131.043V36.6436H125.799Z" fill="#F2F2F2"/>
<path d="M133.251 36.6436V11.0086H138.495V36.6436H133.251Z" fill="#F2F2F2"/>
<path d="M148.067 33.1971C150.348 33.1971 152.234 31.7226 152.234 29.6619V28.2762L148.175 28.5249C146.217 28.6671 145.104 29.5375 145.104 30.8877C145.104 32.3089 146.289 33.1971 148.067 33.1971ZM146.343 36.9456C142.679 36.9456 139.895 34.6006 139.895 31.1719C139.895 27.7077 142.589 25.7003 147.385 25.416L152.234 25.1318V23.8705C152.234 22.094 150.977 21.0636 149.001 21.0636C147.043 21.0636 145.804 22.0229 145.553 23.4264H140.757C140.955 19.7312 144.134 17.1908 149.235 17.1908C154.174 17.1908 157.389 19.7135 157.389 23.5507V36.6436H152.324V33.7301H152.216C151.138 35.7553 148.75 36.9456 146.343 36.9456Z" fill="#F2F2F2"/>
<path d="M170.648 36.9456C167.828 36.9456 165.673 35.5954 164.613 33.3748H164.505V36.6436H159.332V11.0086H164.577V20.9037H164.685C165.744 18.6476 167.882 17.2974 170.63 17.2974C175.479 17.2974 178.461 20.9748 178.461 27.1215C178.461 33.2504 175.497 36.9456 170.648 36.9456ZM168.834 21.4544C166.301 21.4544 164.559 23.7106 164.559 27.1215C164.559 30.5679 166.283 32.7708 168.834 32.7708C171.456 32.7708 173.091 30.6034 173.091 27.1215C173.091 23.6573 171.438 21.4544 168.834 21.4544Z" fill="#F2F2F2"/>
<path d="M69.0271 54.4861H66.5908V44.9588H63.2267V42.9719H72.3993V44.9588H69.0271V54.4861Z" fill="#F2F2F2"/>
<path d="M74.8844 47.4722C73.8518 47.4722 73.1096 48.2462 73.0289 49.3155H76.6995C76.6511 48.2223 75.9331 47.4722 74.8844 47.4722ZM76.7318 51.8689H78.8938C78.6357 53.5445 77.0868 54.6696 74.9489 54.6696C72.2867 54.6696 70.6894 52.986 70.6894 50.2491C70.6894 47.5201 72.3028 45.7487 74.8602 45.7487C77.3772 45.7487 78.9664 47.4324 78.9664 50.0336V50.7438H73.0047V50.8874C73.0047 52.1082 73.7872 52.9461 74.9892 52.9461C75.8525 52.9461 76.514 52.5232 76.7318 51.8689Z" fill="#F2F2F2"/>
<path d="M79.482 54.4861V45.9322H81.757V47.4802H81.8054C82.1685 46.4509 83.0962 45.7726 84.274 45.7726C85.5245 45.7726 86.3957 46.411 86.6862 47.5281H86.7346C87.1218 46.4509 88.1544 45.7726 89.421 45.7726C91.1151 45.7726 92.2526 46.9217 92.2526 48.6452V54.4861H89.897V49.2277C89.897 48.2383 89.3968 47.6957 88.4852 47.6957C87.5897 47.6957 87.0008 48.342 87.0008 49.2915V54.4861H84.7339V49.1559C84.7339 48.2383 84.2095 47.6957 83.3382 47.6957C82.4427 47.6957 81.8377 48.3659 81.8377 49.3234V54.4861H79.482Z" fill="#F2F2F2"/>
<path d="M98.032 45.7966C100.226 45.7966 101.574 47.4483 101.574 50.2092C101.574 52.962 100.234 54.6217 98.0724 54.6217C96.8139 54.6217 95.8458 54.0153 95.3859 53.0498H95.3375V57.2788H92.9819V45.9322H95.3053V47.4244H95.3537C95.8216 46.419 96.7816 45.7966 98.032 45.7966ZM97.2414 52.7466C98.4193 52.7466 99.1614 51.7651 99.1614 50.2092C99.1614 48.6612 98.4193 47.6637 97.2414 47.6637C96.0878 47.6637 95.3295 48.6771 95.3295 50.2092C95.3295 51.7571 96.0878 52.7466 97.2414 52.7466Z" fill="#F2F2F2"/>
<path d="M102.164 54.4861V42.9719H104.52V54.4861H102.164Z" fill="#F2F2F2"/>
<path d="M108.795 52.9381C109.82 52.9381 110.667 52.2758 110.667 51.3502V50.7278L108.844 50.8395C107.965 50.9034 107.464 51.2943 107.464 51.9008C107.464 52.5391 107.997 52.9381 108.795 52.9381ZM108.021 54.6217C106.375 54.6217 105.125 53.5684 105.125 52.0284C105.125 50.4725 106.335 49.5708 108.489 49.4431L110.667 49.3155V48.7489C110.667 47.951 110.102 47.4882 109.215 47.4882C108.336 47.4882 107.779 47.9191 107.666 48.5495H105.512C105.601 46.8898 107.029 45.7487 109.32 45.7487C111.538 45.7487 112.982 46.8818 112.982 48.6053V54.4861H110.707V53.1775H110.659C110.175 54.0871 109.102 54.6217 108.021 54.6217Z" fill="#F2F2F2"/>
<path d="M114.455 43.9613H116.81V45.9322H118.408V47.6877H116.81V51.7811C116.81 52.4354 117.133 52.7466 117.827 52.7466C118.037 52.7466 118.254 52.7306 118.4 52.7067V54.4222C118.158 54.4781 117.754 54.518 117.278 54.518C115.245 54.518 114.455 53.8477 114.455 52.18V47.6877H113.237V45.9322H114.455V43.9613Z" fill="#F2F2F2"/>
<path d="M122.62 47.4722C121.587 47.4722 120.845 48.2462 120.764 49.3155H124.435C124.387 48.2223 123.669 47.4722 122.62 47.4722ZM124.467 51.8689H126.629C126.371 53.5445 124.822 54.6696 122.684 54.6696C120.022 54.6696 118.425 52.986 118.425 50.2491C118.425 47.5201 120.038 45.7487 122.596 45.7487C125.113 45.7487 126.702 47.4324 126.702 50.0336V50.7438H120.74V50.8874C120.74 52.1082 121.523 52.9461 122.725 52.9461C123.588 52.9461 124.25 52.5232 124.467 51.8689Z" fill="#F2F2F2"/>
<path d="M127.126 48.4457C127.126 46.8179 128.554 45.7487 130.773 45.7487C132.943 45.7487 134.355 46.8339 134.387 48.4936H132.217C132.168 47.8074 131.612 47.3845 130.74 47.3845C129.926 47.3845 129.393 47.7515 129.393 48.3021C129.393 48.725 129.764 49.0123 130.523 49.1878L132.176 49.5389C133.911 49.9219 134.613 50.6001 134.613 51.8768C134.613 53.5605 133.048 54.6696 130.765 54.6696C128.457 54.6696 127.037 53.5684 126.908 51.9008H129.208C129.321 52.6189 129.893 53.0338 130.829 53.0338C131.725 53.0338 132.265 52.6827 132.265 52.1242C132.265 51.6933 131.975 51.4539 131.2 51.2704L129.603 50.9193C127.965 50.5523 127.126 49.7065 127.126 48.4457Z" fill="#F2F2F2"/>
</svg>
