<svg width="100" height="34" viewBox="0 0 100 34" fill="none" xmlns="http://www.w3.org/2000/svg">
<path d="M9.29208 10.9079L0 0.333252V23.0919L9.29208 33.6666V10.9079Z" fill="#FED3A6"/>
<path d="M19.3663 10.9079L10.0742 0.333252V23.0919L19.3663 33.6666V10.9079Z" fill="#265D5C"/>
<path d="M29.4405 10.9079L20.1484 0.333252V23.0919L29.4405 33.6666V10.9079Z" fill="#252525"/>
<path d="M41.3645 20.9375C37.1736 20.9375 34.5493 18.1642 34.5493 13.565C34.5493 8.97572 37.1936 6.20239 41.3645 6.20239C44.827 6.20239 47.4613 8.37368 47.6908 11.5615H44.7572C44.4778 9.81462 43.1207 8.66976 41.3645 8.66976C39.0895 8.66976 37.6226 10.5548 37.6226 13.5552C37.6226 16.595 39.0695 18.4702 41.3745 18.4702C43.1606 18.4702 44.4478 17.4339 44.7671 15.7462H47.7008C47.3615 18.9242 44.8969 20.9375 41.3645 20.9375Z" fill="#265D5C"/>
<path d="M53.5179 20.9178C50.2849 20.9178 48.2194 18.8649 48.2194 15.3909C48.2194 11.9662 50.3149 9.88371 53.5179 9.88371C56.721 9.88371 58.8164 11.9563 58.8164 15.3909C58.8164 18.8748 56.7509 20.9178 53.5179 20.9178ZM53.5179 18.7169C54.9448 18.7169 55.8529 17.5227 55.8529 15.4007C55.8529 13.2986 54.9349 12.0846 53.5179 12.0846C52.101 12.0846 51.173 13.2986 51.173 15.4007C51.173 17.5227 52.081 18.7169 53.5179 18.7169Z" fill="#265D5C"/>
<path d="M63.5995 18.7761C64.8667 18.7761 65.9144 17.9569 65.9144 16.8121V16.0423L63.6593 16.1804C62.5717 16.2594 61.953 16.743 61.953 17.4931C61.953 18.2826 62.6116 18.7761 63.5995 18.7761ZM62.6415 20.8586C60.606 20.8586 59.0593 19.5558 59.0593 17.651C59.0593 15.7264 60.5561 14.6112 63.2203 14.4533L65.9144 14.2954V13.5946C65.9144 12.6077 65.216 12.0353 64.1183 12.0353C63.0307 12.0353 62.3422 12.5682 62.2025 13.3479H59.5383C59.648 11.295 61.4142 9.88371 64.2481 9.88371C66.9921 9.88371 68.7782 11.2852 68.7782 13.417V20.6908H65.9643V19.0722H65.9045C65.3058 20.1973 63.9786 20.8586 62.6415 20.8586Z" fill="#265D5C"/>
<path d="M69.8882 20.6908V6.44913H72.8019V20.6908H69.8882Z" fill="#265D5C"/>
<path d="M74.0282 20.6908V6.44913H76.9418V20.6908H74.0282Z" fill="#265D5C"/>
<path d="M82.2595 18.7761C83.5268 18.7761 84.5745 17.9569 84.5745 16.8121V16.0423L82.3194 16.1804C81.2317 16.2594 80.6131 16.743 80.6131 17.4931C80.6131 18.2826 81.2717 18.7761 82.2595 18.7761ZM81.3016 20.8586C79.266 20.8586 77.7194 19.5558 77.7194 17.651C77.7194 15.7264 79.2161 14.6112 81.8803 14.4533L84.5745 14.2954V13.5946C84.5745 12.6077 83.876 12.0353 82.7784 12.0353C81.6908 12.0353 81.0022 12.5682 80.8625 13.3479H78.1983C78.3081 11.295 80.0743 9.88371 82.9081 9.88371C85.6522 9.88371 87.4383 11.2852 87.4383 13.417V20.6908H84.6244V19.0722H84.5645C83.9658 20.1973 82.6387 20.8586 81.3016 20.8586Z" fill="#265D5C"/>
<path d="M94.8044 20.8586C93.2378 20.8586 92.0404 20.1085 91.4517 18.8748H91.3918V20.6908H88.518V6.44913H91.4317V11.9464H91.4916C92.0803 10.693 93.2677 9.94293 94.7944 9.94293C97.4886 9.94293 99.145 11.9859 99.145 15.4007C99.145 18.8057 97.4985 20.8586 94.8044 20.8586ZM93.7966 12.2524C92.3896 12.2524 91.4217 13.5058 91.4217 15.4007C91.4217 17.3154 92.3796 18.5392 93.7966 18.5392C95.2534 18.5392 96.1614 17.3352 96.1614 15.4007C96.1614 13.4762 95.2434 12.2524 93.7966 12.2524Z" fill="#265D5C"/>
<path d="M38.3484 30.6033H36.9949V25.3103H35.126V24.2065H40.2218V25.3103H38.3484V30.6033Z" fill="#252525"/>
<path d="M41.6025 26.7067C41.0288 26.7067 40.6164 27.1367 40.5716 27.7307H42.6109C42.584 27.1234 42.1851 26.7067 41.6025 26.7067ZM42.6288 29.1493H43.8299C43.6865 30.0802 42.826 30.7052 41.6383 30.7052C40.1593 30.7052 39.2719 29.7699 39.2719 28.2494C39.2719 26.7333 40.1683 25.7492 41.589 25.7492C42.9873 25.7492 43.8703 26.6846 43.8703 28.1297V28.5242H40.5582V28.604C40.5582 29.2823 40.9929 29.7477 41.6607 29.7477C42.1403 29.7477 42.5078 29.5128 42.6288 29.1493Z" fill="#252525"/>
<path d="M44.1567 30.6033V25.8512H45.4206V26.7112H45.4475C45.6492 26.1393 46.1646 25.7625 46.8189 25.7625C47.5136 25.7625 47.9977 26.1171 48.159 26.7378H48.1859C48.401 26.1393 48.9747 25.7625 49.6784 25.7625C50.6195 25.7625 51.2515 26.4008 51.2515 27.3584V30.6033H49.9428V27.682C49.9428 27.1323 49.6649 26.8308 49.1585 26.8308C48.661 26.8308 48.3338 27.1899 48.3338 27.7174V30.6033H47.0744V27.6421C47.0744 27.1323 46.7831 26.8308 46.299 26.8308C45.8016 26.8308 45.4654 27.2032 45.4654 27.7352V30.6033H44.1567Z" fill="#252525"/>
<path d="M54.4623 25.7758C55.6813 25.7758 56.4298 26.6934 56.4298 28.2272C56.4298 29.7566 55.6858 30.6786 54.4847 30.6786C53.7855 30.6786 53.2477 30.3417 52.9922 29.8054H52.9653V32.1548H51.6566V25.8512H52.9474V26.6801H52.9743C53.2342 26.1216 53.7676 25.7758 54.4623 25.7758ZM54.023 29.6369C54.6774 29.6369 55.0897 29.0917 55.0897 28.2272C55.0897 27.3672 54.6774 26.8131 54.023 26.8131C53.3821 26.8131 52.9608 27.3761 52.9608 28.2272C52.9608 29.0872 53.3821 29.6369 54.023 29.6369Z" fill="#252525"/>
<path d="M56.7578 30.6033V24.2065H58.0665V30.6033H56.7578Z" fill="#252525"/>
<path d="M60.442 29.7433C61.0112 29.7433 61.4817 29.3754 61.4817 28.8611V28.5154L60.4688 28.5774C59.9803 28.6129 59.7024 28.8301 59.7024 29.167C59.7024 29.5216 59.9983 29.7433 60.442 29.7433ZM60.0117 30.6786C59.0974 30.6786 58.4027 30.0935 58.4027 29.2379C58.4027 28.3735 59.075 27.8726 60.2716 27.8017L61.4817 27.7307V27.416C61.4817 26.9727 61.168 26.7156 60.675 26.7156C60.1865 26.7156 59.8772 26.955 59.8145 27.3052H58.6178C58.6671 26.3831 59.4604 25.7492 60.7333 25.7492C61.9658 25.7492 62.768 26.3787 62.768 27.3362V30.6033H61.5042V29.8763H61.4773C61.2084 30.3816 60.6123 30.6786 60.0117 30.6786Z" fill="#252525"/>
<path d="M63.586 24.7562H64.8947V25.8512H65.7821V26.8264H64.8947V29.1005C64.8947 29.464 65.0739 29.6369 65.4594 29.6369C65.5759 29.6369 65.6969 29.628 65.7776 29.6147V30.5678C65.6431 30.5989 65.419 30.621 65.1546 30.621C64.0252 30.621 63.586 30.2487 63.586 29.3222V26.8264H62.9092V25.8512H63.586V24.7562Z" fill="#252525"/>
<path d="M68.1222 26.7067C67.5485 26.7067 67.1362 27.1367 67.0914 27.7307H69.1306C69.1037 27.1234 68.7049 26.7067 68.1222 26.7067ZM69.1486 29.1493H70.3497C70.2063 30.0802 69.3458 30.7052 68.1581 30.7052C66.6791 30.7052 65.7916 29.7699 65.7916 28.2494C65.7916 26.7333 66.688 25.7492 68.1088 25.7492C69.5071 25.7492 70.39 26.6846 70.39 28.1297V28.5242H67.0779V28.604C67.0779 29.2823 67.5127 29.7477 68.1805 29.7477C68.66 29.7477 69.0275 29.5128 69.1486 29.1493Z" fill="#252525"/>
<path d="M70.6257 27.2475C70.6257 26.3432 71.419 25.7492 72.6515 25.7492C73.8571 25.7492 74.6414 26.3521 74.6594 27.2741H73.4538C73.4269 26.8929 73.1176 26.658 72.6336 26.658C72.1809 26.658 71.8851 26.8619 71.8851 27.1677C71.8851 27.4027 72.0913 27.5623 72.5126 27.6598L73.4313 27.8549C74.3949 28.0676 74.7849 28.4444 74.7849 29.1537C74.7849 30.0891 73.9154 30.7052 72.647 30.7052C71.3652 30.7052 70.5764 30.0935 70.5047 29.167H71.782C71.8448 29.566 72.163 29.7965 72.6829 29.7965C73.1804 29.7965 73.4806 29.6014 73.4806 29.2911C73.4806 29.0518 73.3193 28.9188 72.889 28.8168L72.0016 28.6218C71.0918 28.4178 70.6257 27.9479 70.6257 27.2475Z" fill="#252525"/>
</svg>
